<svg height="512pt" viewBox="0 -24 512 511" width="512pt" xmlns="http://www.w3.org/2000/svg"><path d="m231.382812.5h49.234376v98.460938h-49.234376zm0 0"/><path d="m497.230469 217.117188h-68.921875v113.230468c0 8.15625-6.613282 14.769532-14.769532 14.769532h-78.769531c-8.15625 0-14.769531-6.613282-14.769531-14.769532v-113.230468h29.539062v98.460937h49.230469v-98.460937h-9.847656v-201.847657c0-8.15625-6.613281-14.769531-14.769531-14.769531h-64v113.230469c0 8.15625-6.609375 14.769531-14.769532 14.769531h-78.765624c-8.160157 0-14.769532-6.613281-14.769532-14.769531v-113.230469h-64c-8.15625 0-14.769531 6.613281-14.769531 14.769531v201.847657h-14.769531v98.460937h49.230468v-98.460937h29.539063v113.230468c0 8.15625-6.613281 14.769532-14.769531 14.769532h-78.769532c-8.15625 0-14.769531-6.613282-14.769531-14.769532v-113.230468h-64c-8.15625 0-14.769531 6.609374-14.769531 14.765624v216.617188c0 8.15625 6.613281 14.769531 14.769531 14.769531h482.460938c8.15625 0 14.769531-6.613281 14.769531-14.769531v-216.617188c0-8.15625-6.613281-14.765624-14.769531-14.765624zm-295.382813 187.074218h-39.386718c-8.15625 0-14.769532-6.613281-14.769532-14.769531s6.613282-14.769531 14.769532-14.769531h39.386718c8.15625 0 14.769532 6.613281 14.769532 14.769531s-6.613282 14.769531-14.769532 14.769531zm68.921875-231.382812c0-8.15625 6.613281-14.769532 14.769531-14.769532h39.382813c8.15625 0 14.769531 6.613282 14.769531 14.769532s-6.613281 14.769531-14.769531 14.769531h-39.382813c-8.15625 0-14.769531-6.613281-14.769531-14.769531zm177.230469 231.382812h-39.382812c-8.160157 0-14.769532-6.613281-14.769532-14.769531s6.609375-14.769531 14.769532-14.769531h39.382812c8.15625 0 14.769531 6.613281 14.769531 14.769531s-6.613281 14.769531-14.769531 14.769531zm0 0"/></svg>