<svg enable-background="new 0 0 24 24" height="512" viewBox="0 0 24 24" width="512" xmlns="http://www.w3.org/2000/svg"><path d="m23.955 5.994-2-5.5c-.108-.297-.389-.494-.705-.494h-18.5c-.316 0-.597.197-.705.494l-2 5.5c-.083.23-.05.486.091.687.14.2.369.319.614.319h1.25v16c0 .552.448 1 1 1h1v-12h16v12h1c.552 0 1-.448 1-1v-16h1.25c.245 0 .474-.119.614-.32.141-.2.174-.456.091-.686z"/><path d="m9.25 19v.75c0 .414-.336.75-.75.75s-.75-.336-.75-.75v-.75h-1.75c-.276 0-.5.224-.5.5v4c0 .276.224.5.5.5h5c.276 0 .5-.224.5-.5v-4c0-.276-.224-.5-.5-.5z"/><path d="m16.25 19v.75c0 .414-.336.75-.75.75s-.75-.336-.75-.75v-.75h-1.75c-.276 0-.5.224-.5.5v4c0 .276.224.5.5.5h5c.276 0 .5-.224.5-.5v-4c0-.276-.224-.5-.5-.5z"/><path d="m12.75 13v.75c0 .414-.336.75-.75.75s-.75-.336-.75-.75v-.75h-1.75c-.276 0-.5.224-.5.5v4c0 .276.224.5.5.5h5c.276 0 .5-.224.5-.5v-4c0-.276-.224-.5-.5-.5z"/></svg>